frame:0    pts:0       pts_time:0
lavfi.astats.Overall.Peak_level=-81.852376
frame:1    pts:1024    pts_time:0.0213333
lavfi.astats.Overall.Peak_level=-67.416036
frame:2    pts:2048    pts_time:0.0426667
lavfi.astats.Overall.Peak_level=-65.156142
frame:3    pts:3072    pts_time:0.064
lavfi.astats.Overall.Peak_level=-64.143291
frame:4    pts:4096    pts_time:0.0853333
lavfi.astats.Overall.Peak_level=-63.251911
frame:5    pts:5120    pts_time:0.106667
lavfi.astats.Overall.Peak_level=-64.231208
frame:6    pts:6144    pts_time:0.128
lavfi.astats.Overall.Peak_level=-64.955453
frame:7    pts:7168    pts_time:0.149333
lavfi.astats.Overall.Peak_level=-62.790625
frame:8    pts:8192    pts_time:0.170667
lavfi.astats.Overall.Peak_level=-62.758083
frame:9    pts:9216    pts_time:0.192
lavfi.astats.Overall.Peak_level=-63.773709
frame:10   pts:10240   pts_time:0.213333
lavfi.astats.Overall.Peak_level=-63.960555
frame:11   pts:11264   pts_time:0.234667
lavfi.astats.Overall.Peak_level=-65.612948
frame:12   pts:12288   pts_time:0.256
lavfi.astats.Overall.Peak_level=-64.624961
frame:13   pts:13312   pts_time:0.277333
lavfi.astats.Overall.Peak_level=-63.613035
frame:14   pts:14336   pts_time:0.298667
lavfi.astats.Overall.Peak_level=-63.399607
frame:15   pts:15360   pts_time:0.32
lavfi.astats.Overall.Peak_level=-65.020624
frame:16   pts:16384   pts_time:0.341333
lavfi.astats.Overall.Peak_level=-64.837516
frame:17   pts:17408   pts_time:0.362667
lavfi.astats.Overall.Peak_level=-63.615100
frame:18   pts:18432   pts_time:0.384
lavfi.astats.Overall.Peak_level=-62.138547
frame:19   pts:19456   pts_time:0.405333
lavfi.astats.Overall.Peak_level=-62.748213
frame:20   pts:20480   pts_time:0.426667
lavfi.astats.Overall.Peak_level=-64.573959
frame:21   pts:21504   pts_time:0.448
lavfi.astats.Overall.Peak_level=-63.193352
frame:22   pts:22528   pts_time:0.469333
lavfi.astats.Overall.Peak_level=-64.364927
frame:23   pts:23552   pts_time:0.490667
lavfi.astats.Overall.Peak_level=-65.299984
frame:24   pts:24576   pts_time:0.512
lavfi.astats.Overall.Peak_level=-64.582568
frame:25   pts:25600   pts_time:0.533333
lavfi.astats.Overall.Peak_level=-64.938195
frame:26   pts:26624   pts_time:0.554667
lavfi.astats.Overall.Peak_level=-64.185515
frame:27   pts:27648   pts_time:0.576
lavfi.astats.Overall.Peak_level=-63.379815
frame:28   pts:28672   pts_time:0.597333
lavfi.astats.Overall.Peak_level=-62.672489
frame:29   pts:29696   pts_time:0.618667
lavfi.astats.Overall.Peak_level=-62.707772
frame:30   pts:30720   pts_time:0.64
lavfi.astats.Overall.Peak_level=-64.108797
frame:31   pts:31744   pts_time:0.661333
lavfi.astats.Overall.Peak_level=-63.921737
frame:32   pts:32768   pts_time:0.682667
lavfi.astats.Overall.Peak_level=-63.293383
frame:33   pts:33792   pts_time:0.704
lavfi.astats.Overall.Peak_level=-61.586223
frame:34   pts:34816   pts_time:0.725333
lavfi.astats.Overall.Peak_level=-63.169163
frame:35   pts:35840   pts_time:0.746667
lavfi.astats.Overall.Peak_level=-64.913108
frame:36   pts:36864   pts_time:0.768
lavfi.astats.Overall.Peak_level=-62.072968
frame:37   pts:37888   pts_time:0.789333
lavfi.astats.Overall.Peak_level=-62.732755
frame:38   pts:38912   pts_time:0.810667
lavfi.astats.Overall.Peak_level=-63.422993
frame:39   pts:39936   pts_time:0.832
lavfi.astats.Overall.Peak_level=-64.411957
frame:40   pts:40960   pts_time:0.853333
lavfi.astats.Overall.Peak_level=-64.310787
frame:41   pts:41984   pts_time:0.874667
lavfi.astats.Overall.Peak_level=-63.222233
frame:42   pts:43008   pts_time:0.896
lavfi.astats.Overall.Peak_level=-64.156720
frame:43   pts:44032   pts_time:0.917333
lavfi.astats.Overall.Peak_level=-64.468032
frame:44   pts:45056   pts_time:0.938667
lavfi.astats.Overall.Peak_level=-63.796850
frame:45   pts:46080   pts_time:0.96
lavfi.astats.Overall.Peak_level=-62.823037
frame:46   pts:47104   pts_time:0.981333
lavfi.astats.Overall.Peak_level=-62.508535
frame:47   pts:48128   pts_time:1.002667
lavfi.astats.Overall.Peak_level=-63.861812
frame:48   pts:49152   pts_time:1.024
lavfi.astats.Overall.Peak_level=-64.271970
frame:49   pts:50176   pts_time:1.045333
lavfi.astats.Overall.Peak_level=-62.260896
frame:50   pts:51200   pts_time:1.066667
lavfi.astats.Overall.Peak_level=-62.340667
frame:51   pts:52224   pts_time:1.088
lavfi.astats.Overall.Peak_level=-62.940315
frame:52   pts:53248   pts_time:1.109333
lavfi.astats.Overall.Peak_level=-62.181386
frame:53   pts:54272   pts_time:1.130667
lavfi.astats.Overall.Peak_level=-63.246186
frame:54   pts:55296   pts_time:1.152
lavfi.astats.Overall.Peak_level=-63.805259
frame:55   pts:56320   pts_time:1.173333
lavfi.astats.Overall.Peak_level=-64.107490
frame:56   pts:57344   pts_time:1.194667
lavfi.astats.Overall.Peak_level=-63.095218
frame:57   pts:58368   pts_time:1.216
lavfi.astats.Overall.Peak_level=-63.562141
frame:58   pts:59392   pts_time:1.237333
lavfi.astats.Overall.Peak_level=-64.066092
frame:59   pts:60416   pts_time:1.258667
lavfi.astats.Overall.Peak_level=-63.579517
frame:60   pts:61440   pts_time:1.28
lavfi.astats.Overall.Peak_level=-63.953408
frame:61   pts:62464   pts_time:1.301333
lavfi.astats.Overall.Peak_level=-63.409854
frame:62   pts:63488   pts_time:1.322667
lavfi.astats.Overall.Peak_level=-32.652655
frame:63   pts:64512   pts_time:1.344
lavfi.astats.Overall.Peak_level=-29.984001
frame:64   pts:65536   pts_time:1.365333
lavfi.astats.Overall.Peak_level=-32.519036
frame:65   pts:66560   pts_time:1.386667
lavfi.astats.Overall.Peak_level=-35.957790
frame:66   pts:67584   pts_time:1.408
lavfi.astats.Overall.Peak_level=-42.111999
frame:67   pts:68608   pts_time:1.429333
lavfi.astats.Overall.Peak_level=-41.948828
frame:68   pts:69632   pts_time:1.450667
lavfi.astats.Overall.Peak_level=-41.792343
frame:69   pts:70656   pts_time:1.472
lavfi.astats.Overall.Peak_level=-44.087514
frame:70   pts:71680   pts_time:1.493333
lavfi.astats.Overall.Peak_level=-51.289461
frame:71   pts:72704   pts_time:1.514667
lavfi.astats.Overall.Peak_level=-52.218818
frame:72   pts:73728   pts_time:1.536
lavfi.astats.Overall.Peak_level=-55.192890
frame:73   pts:74752   pts_time:1.557333
lavfi.astats.Overall.Peak_level=-55.980688
frame:74   pts:75776   pts_time:1.578667
lavfi.astats.Overall.Peak_level=-50.582652
frame:75   pts:76800   pts_time:1.6
lavfi.astats.Overall.Peak_level=-54.197702
frame:76   pts:77824   pts_time:1.621333
lavfi.astats.Overall.Peak_level=-53.548433
frame:77   pts:78848   pts_time:1.642667
lavfi.astats.Overall.Peak_level=-23.697988
frame:78   pts:79872   pts_time:1.664
lavfi.astats.Overall.Peak_level=-17.776446
frame:79   pts:80896   pts_time:1.685333
lavfi.astats.Overall.Peak_level=-22.839355
frame:80   pts:81920   pts_time:1.706667
lavfi.astats.Overall.Peak_level=-29.793331
frame:81   pts:82944   pts_time:1.728
lavfi.astats.Overall.Peak_level=-33.387584
frame:82   pts:83968   pts_time:1.749333
lavfi.astats.Overall.Peak_level=-37.675809
frame:83   pts:84992   pts_time:1.770667
lavfi.astats.Overall.Peak_level=-41.776578
frame:84   pts:86016   pts_time:1.792
lavfi.astats.Overall.Peak_level=-41.781330
frame:85   pts:87040   pts_time:1.813333
lavfi.astats.Overall.Peak_level=-44.066112
frame:86   pts:88064   pts_time:1.834667
lavfi.astats.Overall.Peak_level=-45.691714
frame:87   pts:89088   pts_time:1.856
lavfi.astats.Overall.Peak_level=-47.892154
frame:88   pts:90112   pts_time:1.877333
lavfi.astats.Overall.Peak_level=-49.264769
frame:89   pts:91136   pts_time:1.898667
lavfi.astats.Overall.Peak_level=-54.447514
frame:90   pts:92160   pts_time:1.92
lavfi.astats.Overall.Peak_level=-55.796999
frame:91   pts:93184   pts_time:1.941333
lavfi.astats.Overall.Peak_level=-19.584361
frame:92   pts:94208   pts_time:1.962667
lavfi.astats.Overall.Peak_level=-16.921243
frame:93   pts:95232   pts_time:1.984
lavfi.astats.Overall.Peak_level=-23.754498
frame:94   pts:96256   pts_time:2.005333
lavfi.astats.Overall.Peak_level=-30.369268
frame:95   pts:97280   pts_time:2.026667
lavfi.astats.Overall.Peak_level=-34.289595
frame:96   pts:98304   pts_time:2.048
lavfi.astats.Overall.Peak_level=-36.843309
frame:97   pts:99328   pts_time:2.069333
lavfi.astats.Overall.Peak_level=-37.031056
frame:98   pts:100352  pts_time:2.090667
lavfi.astats.Overall.Peak_level=-42.913181
frame:99   pts:101376  pts_time:2.112
lavfi.astats.Overall.Peak_level=-42.745005
frame:100  pts:102400  pts_time:2.133333
lavfi.astats.Overall.Peak_level=-47.409433
frame:101  pts:103424  pts_time:2.154667
lavfi.astats.Overall.Peak_level=-47.816496
frame:102  pts:104448  pts_time:2.176
lavfi.astats.Overall.Peak_level=-50.767729
frame:103  pts:105472  pts_time:2.197333
lavfi.astats.Overall.Peak_level=-55.277403
frame:104  pts:106496  pts_time:2.218667
lavfi.astats.Overall.Peak_level=-57.157323
frame:105  pts:107520  pts_time:2.24
lavfi.astats.Overall.Peak_level=-55.593810
frame:106  pts:108544  pts_time:2.261333
lavfi.astats.Overall.Peak_level=-57.530184
frame:107  pts:109568  pts_time:2.282667
lavfi.astats.Overall.Peak_level=-58.332845
frame:108  pts:110592  pts_time:2.304
lavfi.astats.Overall.Peak_level=-56.351774
frame:109  pts:111616  pts_time:2.325333
lavfi.astats.Overall.Peak_level=-61.384637
frame:110  pts:112640  pts_time:2.346667
lavfi.astats.Overall.Peak_level=-60.124084
frame:111  pts:113664  pts_time:2.368
lavfi.astats.Overall.Peak_level=-60.102184
frame:112  pts:114688  pts_time:2.389333
lavfi.astats.Overall.Peak_level=-59.953083
frame:113  pts:115712  pts_time:2.410667
lavfi.astats.Overall.Peak_level=-60.486529
frame:114  pts:116736  pts_time:2.432
lavfi.astats.Overall.Peak_level=-60.155924
frame:115  pts:117760  pts_time:2.453333
lavfi.astats.Overall.Peak_level=-61.551002
frame:116  pts:118784  pts_time:2.474667
lavfi.astats.Overall.Peak_level=-59.204692
frame:117  pts:119808  pts_time:2.496
lavfi.astats.Overall.Peak_level=-61.019159
frame:118  pts:120832  pts_time:2.517333
lavfi.astats.Overall.Peak_level=-60.724635
frame:119  pts:121856  pts_time:2.538667
lavfi.astats.Overall.Peak_level=-58.681486
frame:120  pts:122880  pts_time:2.56
lavfi.astats.Overall.Peak_level=-63.293500
frame:121  pts:123904  pts_time:2.581333
lavfi.astats.Overall.Peak_level=-60.692283
frame:122  pts:124928  pts_time:2.602667
lavfi.astats.Overall.Peak_level=-62.890643
frame:123  pts:125952  pts_time:2.624
lavfi.astats.Overall.Peak_level=-60.873204
frame:124  pts:126976  pts_time:2.645333
lavfi.astats.Overall.Peak_level=-62.843363
frame:125  pts:128000  pts_time:2.666667
lavfi.astats.Overall.Peak_level=-60.526532
frame:126  pts:129024  pts_time:2.688
lavfi.astats.Overall.Peak_level=-57.468249
frame:127  pts:130048  pts_time:2.709333
lavfi.astats.Overall.Peak_level=-62.371963
frame:128  pts:131072  pts_time:2.730667
lavfi.astats.Overall.Peak_level=-58.597866
frame:129  pts:132096  pts_time:2.752
lavfi.astats.Overall.Peak_level=-62.851818
frame:130  pts:133120  pts_time:2.773333
lavfi.astats.Overall.Peak_level=-62.177229
frame:131  pts:134144  pts_time:2.794667
lavfi.astats.Overall.Peak_level=-58.162905
frame:132  pts:135168  pts_time:2.816
lavfi.astats.Overall.Peak_level=-60.750661
frame:133  pts:136192  pts_time:2.837333
lavfi.astats.Overall.Peak_level=-64.389572
frame:134  pts:137216  pts_time:2.858667
lavfi.astats.Overall.Peak_level=-61.181138
frame:135  pts:138240  pts_time:2.88
lavfi.astats.Overall.Peak_level=-63.602303
frame:136  pts:139264  pts_time:2.901333
lavfi.astats.Overall.Peak_level=-61.792807
frame:137  pts:140288  pts_time:2.922667
lavfi.astats.Overall.Peak_level=-63.521082
frame:138  pts:141312  pts_time:2.944
lavfi.astats.Overall.Peak_level=-64.851768
frame:139  pts:142336  pts_time:2.965333
lavfi.astats.Overall.Peak_level=-62.802973
frame:140  pts:143360  pts_time:2.986667
lavfi.astats.Overall.Peak_level=-62.751239
